<svg width="25" height="28" viewBox="0 0 25 28" fill="none" xmlns="http://www.w3.org/2000/svg">
<path d="M24.5 13.6154C24.5 20.8999 19.088 26.7308 12.5 26.7308C5.91195 26.7308 0.5 20.8999 0.5 13.6154C0.5 6.33087 5.91195 0.5 12.5 0.5C19.088 0.5 24.5 6.33087 24.5 13.6154Z" fill="#131622" stroke="#32DEED"/>
<ellipse cx="12.5" cy="13.6154" rx="10" ry="11.022" fill="#32DEED"/>
<path fill-rule="evenodd" clip-rule="evenodd" d="M13.2602 12.4683C13.8411 11.6574 14.4981 11.2461 15.3288 11.2958C16.6802 11.3764 17.6313 12.5186 17.6997 14.3018C17.7597 15.8724 17.7171 17.4485 17.7264 19.0218C17.7286 19.3994 17.583 19.5405 17.2846 19.5313C16.8848 19.5191 16.4836 19.5079 16.0847 19.5361C15.6891 19.5642 15.5386 19.3714 15.5454 18.8943C15.561 17.8261 15.5514 16.7572 15.5497 15.6887C15.5491 15.3975 15.5521 15.1049 15.5334 14.8151C15.4756 13.918 15.042 13.3766 14.3993 13.3827C13.7386 13.3889 13.2041 14.0335 13.1925 14.8911C13.1754 16.1536 13.1857 17.4166 13.1835 18.6794C13.182 19.525 13.1814 19.525 12.4938 19.5305C11.0069 19.542 11.0074 19.542 11.0069 17.7364C11.0063 15.8908 11.0174 14.0447 10.9952 12.1995C10.9888 11.6651 11.136 11.4512 11.5748 11.5011C11.8285 11.53 12.0864 11.5043 12.3426 11.5056C13.1069 11.5097 13.1069 11.5102 13.2602 12.4683ZM7.54382 15.4845C7.54382 14.3776 7.56055 13.2702 7.53647 12.1642C7.5254 11.6469 7.68807 11.4678 8.09876 11.4986C8.49716 11.5282 8.89847 11.5152 9.29801 11.5049C9.59814 11.4974 9.73382 11.6457 9.73269 12.022C9.72558 14.3523 9.72461 16.6822 9.72833 19.0125C9.72889 19.3855 9.59604 19.5393 9.29388 19.5315C8.86227 19.5204 8.42984 19.5162 7.99855 19.5336C7.66746 19.547 7.54309 19.3752 7.54665 18.9797C7.55716 17.8147 7.55037 16.6494 7.55037 15.4844C7.54835 15.4845 7.54608 15.4845 7.54382 15.4845ZM8.61547 10.3498C7.91337 10.3461 7.39335 9.75911 7.38858 8.96479C7.38373 8.18401 7.92049 7.57414 8.61264 7.57355C9.36581 7.57306 9.87589 8.13662 9.8729 8.96577C9.86967 9.81013 9.37591 10.3534 8.61547 10.3498Z" fill="#131622"/>
</svg>
