<svg width="26" height="24" viewBox="0 0 26 24" fill="none" xmlns="http://www.w3.org/2000/svg">
<ellipse cx="13" cy="12" rx="13" ry="12" fill="black"/>
<ellipse cx="13" cy="12.022" rx="11.5385" ry="11.022" fill="#32DEED"/>
<path d="M17.922 17H17.125C16.918 17 16.75 16.8133 16.75 16.5833V10.7711L13.219 13.5889C13.088 13.6933 12.9125 13.6933 12.7815 13.5889L9.25 10.7711V16.5833C9.25 16.8133 9.082 17 8.875 17H8.078C7.4735 17 7 16.4811 7 15.8194V8.18056C7 7.85778 7.112 7.55833 7.3155 7.33833C7.5125 7.12111 7.7845 7 8.078 7H8.3125C8.39 7 8.466 7.02667 8.5295 7.07667L13 10.5983L17.4705 7.07722C17.534 7.02667 17.61 7 17.6875 7H17.922C18.214 7 18.4855 7.12056 18.6855 7.33944C18.8875 7.55722 19 7.85667 19 8.18056V15.8194C19 16.4811 18.5265 17 17.922 17ZM17.5 16.1667H17.922C18.112 16.1667 18.25 16.0206 18.25 15.8194V8.18056C18.25 8.08278 18.219 7.99778 18.1615 7.93556C18.1005 7.86889 18.016 7.83333 17.922 7.83333H17.8075L13.217 11.4489C13.087 11.5517 12.9135 11.5517 12.7835 11.4489L8.193 7.83333H8.078C7.9835 7.83333 7.8995 7.86833 7.8405 7.93278C7.781 7.99778 7.75 8.08278 7.75 8.18056V15.8194C7.75 16.0206 7.888 16.1667 8.078 16.1667H8.5V9.95889C8.5 9.80278 8.5785 9.65944 8.7035 9.58833C8.8295 9.51778 8.9795 9.53 9.0935 9.62056L13 12.7372L16.906 9.62056C17.0205 9.52944 17.1705 9.51722 17.296 9.58833C17.4215 9.65944 17.5 9.80222 17.5 9.95889V16.1667Z" fill="black"/>
</svg>
