<svg width="26" height="24" viewBox="0 0 26 24" fill="none" xmlns="http://www.w3.org/2000/svg">
<ellipse cx="13" cy="12" rx="13" ry="12" fill="black"/>
<ellipse cx="13" cy="12.022" rx="11.5385" ry="11.022" fill="#32DEED"/>
<path d="M16.115 8.185C15.9766 8.185 15.8412 8.22605 15.7261 8.30297C15.611 8.37989 15.5213 8.48921 15.4683 8.61712C15.4153 8.74503 15.4015 8.88577 15.4285 9.02156C15.4555 9.15735 15.5221 9.28208 15.62 9.37997C15.7179 9.47787 15.8427 9.54454 15.9785 9.57155C16.1142 9.59856 16.255 9.58469 16.3829 9.53171C16.5108 9.47873 16.6201 9.38901 16.697 9.2739C16.774 9.15878 16.815 9.02344 16.815 8.885C16.815 8.69935 16.7413 8.5213 16.61 8.39002C16.4787 8.25875 16.3007 8.185 16.115 8.185ZM18.7984 9.59666C18.787 9.11267 18.6964 8.63382 18.53 8.17916C18.3817 7.79016 18.1508 7.43791 17.8534 7.14666C17.5645 6.84766 17.2114 6.61827 16.8209 6.47583C16.3674 6.30442 15.888 6.2117 15.4034 6.20166C14.785 6.16666 14.5867 6.16666 13 6.16666C11.4134 6.16666 11.215 6.16666 10.5967 6.20166C10.112 6.2117 9.63264 6.30442 9.17919 6.47583C8.78933 6.61971 8.43657 6.84891 8.14669 7.14666C7.84769 7.43552 7.61829 7.78859 7.47585 8.17916C7.30445 8.63261 7.21173 9.112 7.20169 9.59666C7.16669 10.215 7.16669 10.4133 7.16669 12C7.16669 13.5867 7.16669 13.785 7.20169 14.4033C7.21173 14.888 7.30445 15.3674 7.47585 15.8208C7.61829 16.2114 7.84769 16.5645 8.14669 16.8533C8.43657 17.1511 8.78933 17.3803 9.17919 17.5242C9.63264 17.6956 10.112 17.7883 10.5967 17.7983C11.215 17.8333 11.4134 17.8333 13 17.8333C14.5867 17.8333 14.785 17.8333 15.4034 17.7983C15.888 17.7883 16.3674 17.6956 16.8209 17.5242C17.2114 17.3817 17.5645 17.1523 17.8534 16.8533C18.1522 16.5632 18.3832 16.2106 18.53 15.8208C18.6964 15.3662 18.787 14.8873 18.7984 14.4033C18.7984 13.785 18.8334 13.5867 18.8334 12C18.8334 10.4133 18.8334 10.215 18.7984 9.59666ZM17.7484 14.3333C17.7441 14.7036 17.677 15.0705 17.55 15.4183C17.4569 15.6722 17.3073 15.9016 17.1125 16.0892C16.9233 16.282 16.6944 16.4313 16.4417 16.5267C16.0938 16.6537 15.727 16.7208 15.3567 16.725C14.7734 16.7542 14.5575 16.76 13.0234 16.76C11.4892 16.76 11.2734 16.76 10.69 16.725C10.3055 16.7322 9.9227 16.673 9.55835 16.55C9.31673 16.4497 9.09831 16.3008 8.91669 16.1125C8.72307 15.9251 8.57535 15.6955 8.48502 15.4417C8.3426 15.0888 8.26361 14.7136 8.25169 14.3333C8.25169 13.75 8.21669 13.5342 8.21669 12C8.21669 10.4658 8.21669 10.25 8.25169 9.66666C8.2543 9.28811 8.32341 8.91297 8.45585 8.55833C8.55855 8.31211 8.71618 8.09263 8.91669 7.91666C9.09391 7.7161 9.31294 7.5568 9.55835 7.45C9.91393 7.32169 10.2887 7.25463 10.6667 7.25166C11.25 7.25166 11.4659 7.21666 13 7.21666C14.5342 7.21666 14.75 7.21666 15.3334 7.25166C15.7036 7.25591 16.0705 7.32297 16.4184 7.45C16.6834 7.54838 16.9214 7.70832 17.1125 7.91666C17.3037 8.09585 17.453 8.31492 17.55 8.55833C17.6797 8.91354 17.7468 9.28854 17.7484 9.66666C17.7775 10.25 17.7834 10.4658 17.7834 12C17.7834 13.5342 17.7775 13.75 17.7484 14.3333ZM13 9.0075C12.4084 9.00865 11.8304 9.18514 11.3391 9.51466C10.8477 9.84418 10.4651 10.3119 10.2395 10.8589C10.0139 11.4058 9.95544 12.0073 10.0716 12.5874C10.1877 13.1675 10.4732 13.7001 10.8919 14.1181C11.3106 14.536 11.8439 14.8204 12.4242 14.9354C13.0045 15.0504 13.6059 14.9908 14.1524 14.7641C14.6988 14.5375 15.1659 14.1539 15.4944 13.6619C15.823 13.1699 15.9984 12.5916 15.9984 12C15.9991 11.6063 15.9221 11.2164 15.7716 10.8526C15.6211 10.4888 15.4002 10.1583 15.1215 9.88019C14.8429 9.60208 14.512 9.38181 14.1479 9.23204C13.7838 9.08227 13.3937 9.00596 13 9.0075ZM13 13.9425C12.6158 13.9425 12.2403 13.8286 11.9208 13.6151C11.6014 13.4017 11.3524 13.0983 11.2054 12.7434C11.0584 12.3884 11.0199 11.9978 11.0948 11.621C11.1698 11.2442 11.3548 10.8981 11.6265 10.6264C11.8981 10.3548 12.2442 10.1698 12.6211 10.0948C12.9979 10.0199 13.3884 10.0583 13.7434 10.2054C14.0983 10.3524 14.4017 10.6014 14.6152 10.9208C14.8286 11.2402 14.9425 11.6158 14.9425 12C14.9425 12.2551 14.8923 12.5077 14.7947 12.7434C14.697 12.979 14.554 13.1932 14.3736 13.3736C14.1932 13.5539 13.9791 13.697 13.7434 13.7946C13.5077 13.8923 13.2551 13.9425 13 13.9425Z" fill="black"/>
</svg>
