<svg width="26" height="24" viewBox="0 0 26 24" fill="none" xmlns="http://www.w3.org/2000/svg">
<ellipse cx="13" cy="12" rx="13" ry="12" fill="black"/>
<ellipse cx="13" cy="12.022" rx="11.5385" ry="11.022" fill="#32DEED"/>
<path fill-rule="evenodd" clip-rule="evenodd" d="M13.3793 10.909C14.1094 10.0957 14.9351 9.68322 15.979 9.73301C17.6775 9.81389 18.8728 10.9594 18.9588 12.7478C19.0342 14.323 18.9807 15.9036 18.9923 17.4815C18.9951 17.8602 18.8121 18.0017 18.437 17.9925C17.9346 17.9802 17.4304 17.969 16.9291 17.9973C16.4319 18.0255 16.2428 17.8321 16.2513 17.3536C16.2709 16.2824 16.2588 15.2103 16.2567 14.1387C16.256 13.8466 16.2598 13.5532 16.2362 13.2625C16.1636 12.3629 15.6187 11.8199 14.8109 11.826C13.9806 11.8322 13.3089 12.4787 13.2942 13.3388C13.2728 14.605 13.2857 15.8717 13.283 17.1381C13.281 17.9861 13.2803 17.9861 12.4161 17.9916C10.5474 18.0032 10.5481 18.0032 10.5474 16.1923C10.5467 14.3414 10.5606 12.4899 10.5328 10.6394C10.5247 10.1035 10.7097 9.88887 11.2612 9.93896C11.5801 9.96799 11.9042 9.94221 12.2261 9.94348C13.1867 9.94762 13.1867 9.94811 13.3793 10.909ZM6.19514 13.9339C6.19514 12.8238 6.21617 11.7132 6.1859 10.6039C6.17199 10.0852 6.37643 9.9056 6.89257 9.9364C7.39327 9.96612 7.89763 9.95313 8.39975 9.9428C8.77695 9.93522 8.94748 10.084 8.94606 10.4614C8.93712 12.7984 8.9359 15.1351 8.94057 17.4722C8.94128 17.8463 8.77431 18.0005 8.39457 17.9927C7.85213 17.9815 7.30867 17.9774 6.76663 17.9948C6.35053 18.0083 6.19423 17.836 6.1987 17.4392C6.2119 16.2708 6.20337 15.1022 6.20337 13.9338C6.20083 13.9339 6.19799 13.9339 6.19514 13.9339ZM7.54196 8.78426C6.65959 8.78062 6.00603 8.19191 6.00004 7.39528C5.99395 6.61223 6.66852 6.00059 7.5384 6C8.48496 5.99951 9.12602 6.5647 9.12227 7.39626C9.1182 8.24307 8.49766 8.7879 7.54196 8.78426Z" fill="#131622"/>
</svg>
