<svg width="26" height="24" viewBox="0 0 26 24" fill="none" xmlns="http://www.w3.org/2000/svg">
<ellipse cx="13" cy="12" rx="13" ry="12" fill="black"/>
<ellipse cx="13" cy="12.022" rx="11.5385" ry="11.022" fill="#32DEED"/>
<path d="M13 4C11.4087 4 9.88258 4.67428 8.75736 5.87451C7.63214 7.07474 7 8.7026 7 10.4C7 14.72 12.2875 19.6 12.5125 19.8079C12.6483 19.9319 12.8212 20 13 20C13.1788 20 13.3517 19.9319 13.4875 19.8079C13.75 19.6 19 14.72 19 10.4C19 8.7026 18.3679 7.07474 17.2426 5.87451C16.1174 4.67428 14.5913 4 13 4ZM13 18.12C11.4025 16.52 8.5 13.072 8.5 10.4C8.5 9.12694 8.97411 7.90605 9.81802 7.00588C10.6619 6.10571 11.8065 5.59999 13 5.59999C14.1935 5.59999 15.3381 6.10571 16.182 7.00588C17.0259 7.90605 17.5 9.12694 17.5 10.4C17.5 13.072 14.5975 16.528 13 18.12ZM13 7.19999C12.4067 7.19999 11.8266 7.38767 11.3333 7.73929C10.8399 8.0909 10.4554 8.59067 10.2284 9.1754C10.0013 9.76012 9.94189 10.4035 10.0576 11.0243C10.1734 11.645 10.4591 12.2152 10.8787 12.6627C11.2982 13.1102 11.8328 13.415 12.4147 13.5385C12.9967 13.662 13.5999 13.5986 14.1481 13.3564C14.6962 13.1142 15.1648 12.704 15.4944 12.1778C15.8241 11.6516 16 11.0329 16 10.4C16 9.55129 15.6839 8.73736 15.1213 8.13724C14.5587 7.53713 13.7956 7.19999 13 7.19999ZM13 12C12.7033 12 12.4133 11.9061 12.1666 11.7303C11.92 11.5545 11.7277 11.3046 11.6142 11.0123C11.5006 10.7199 11.4709 10.3982 11.5288 10.0878C11.5867 9.77747 11.7296 9.49238 11.9393 9.26861C12.1491 9.04485 12.4164 8.89246 12.7074 8.83073C12.9983 8.76899 13.2999 8.80068 13.574 8.92178C13.8481 9.04288 14.0824 9.24795 14.2472 9.51107C14.412 9.77419 14.5 10.0835 14.5 10.4C14.5 10.8243 14.342 11.2313 14.0607 11.5313C13.7794 11.8314 13.3978 12 13 12Z" fill="black"/>
</svg>
